<?xml version="1.0" encoding="UTF-8" standalone="no"?>
<!-- Created with Inkscape (http://www.inkscape.org/) -->

<svg
   width="117"
   height="20"
   viewBox="0 0 30.956248 5.2916665"
   version="1.1"
   id="svg5"
   xml:space="preserve"
   inkscape:version="1.2.1 (1:1.2.1+202210291244+9c6d41e410)"
   sodipodi:docname="drawing.svg"
   xmlns:inkscape="http://www.inkscape.org/namespaces/inkscape"
   xmlns:sodipodi="http://sodipodi.sourceforge.net/DTD/sodipodi-0.dtd"
   xmlns="http://www.w3.org/2000/svg"
   xmlns:svg="http://www.w3.org/2000/svg"><sodipodi:namedview
     id="namedview7"
     pagecolor="#efefef"
     bordercolor="#000000"
     borderopacity="0.24705882"
     inkscape:showpageshadow="true"
     inkscape:pageopacity="0"
     inkscape:pagecheckerboard="0"
     inkscape:deskcolor="#d1d1d1"
     inkscape:document-units="mm"
     showgrid="true"
     borderlayer="true"
     showguides="true"
     inkscape:zoom="11.329025"
     inkscape:cx="57.904364"
     inkscape:cy="11.519085"
     inkscape:window-width="1848"
     inkscape:window-height="1016"
     inkscape:window-x="72"
     inkscape:window-y="27"
     inkscape:window-maximized="1"
     inkscape:current-layer="layer1-7"><sodipodi:guide
       position="8.1512463,2.6085478"
       orientation="0,-1"
       id="guide10668"
       inkscape:locked="false" /></sodipodi:namedview><defs
     id="defs2"><inkscape:path-effect
       effect="fillet_chamfer"
       id="path-effect1707"
       is_visible="true"
       lpeversion="1"
       nodesatellites_param="F,0,0,1,0,0.10425462,0,1 @ F,0,0,1,0,0,0,1 @ F,0,0,1,0,0,0,1 @ F,0,0,1,0,0,0,1"
       unit="px"
       method="auto"
       mode="F"
       radius="0"
       chamfer_steps="1"
       flexible="false"
       use_knot_distance="true"
       apply_no_radius="true"
       apply_with_radius="true"
       only_selected="false"
       hide_knots="false" /><filter
       inkscape:label="Pixellize"
       inkscape:menu="Pixel Tools"
       inkscape:menu-tooltip="Reduce or remove antialiasing around shapes"
       style="color-interpolation-filters:sRGB"
       id="filter1310"
       x="0"
       y="0"
       width="1"
       height="1"><feColorMatrix
         values="1 0 0 0 0 0 1 0 0 0 0 0 1 0 0 0 0 0 1000 -500 "
         id="feColorMatrix1308" /></filter><filter
       inkscape:label="Pixellize"
       inkscape:menu="Pixel Tools"
       inkscape:menu-tooltip="Reduce or remove antialiasing around shapes"
       style="color-interpolation-filters:sRGB"
       id="filter1314"
       x="0"
       y="0"
       width="1"
       height="1"><feColorMatrix
         values="1 0 0 0 0 0 1 0 0 0 0 0 1 0 0 0 0 0 1000 -500 "
         id="feColorMatrix1312" /></filter><style
       id="style127">
      .cls-1{fill:#20beff}
    </style><style
       id="style127-6">
      .cls-1{fill:#20beff}
    </style></defs><g
     inkscape:label="Layer 1"
     inkscape:groupmode="layer"
     id="layer1"><g
       inkscape:label="Layer 1"
       id="layer1-3"
       transform="matrix(0.92975517,0,0,0.62137186,0.70823123,0.62166889)"
       style="stroke-width:0.06578243;stroke-dasharray:none"><rect
         style="fill:#fffcfb;fill-opacity:1;stroke:#f3040d;stroke-width:0.06578243;stroke-dasharray:none;stroke-opacity:0.64929032"
         id="rect8268"
         width="33.115444"
         height="8.2799978"
         x="-0.67193359"
         y="-0.88242573"
         ry="0.58331341"
         rx="0.38983864" /><g
         inkscape:label="Layer 1"
         id="layer1-7"
         transform="matrix(0.9980214,0,0,1.4933339,1.3479375,-0.46956816)"
         style="stroke-width:0.0708929"><g
           style="display:block;stroke-width:0.0708929"
           id="g660"
           transform="matrix(0.29387283,0,0,0.29387283,1.1885482,-1.0052855)"
           inkscape:transform-center-x="4.1698569"
           inkscape:transform-center-y="-5.6667795"><g
             id="g646"
             style="stroke-width:0.0708929"><path
               d="M 4.54,9.46 2.19,7.1 a 6.93,6.93 0 0 0 0,9.79 L 4.55,14.53 A 3.59,3.59 0 0 1 4.54,9.46 Z"
               fill="#e8710a"
               id="path636"
               style="stroke-width:0.0711064" /><path
               d="m 2.19,7.1 2.35,2.36 a 3.59,3.59 0 0 1 5.08,0 l 1.71,-2.93 v 0 l -0.1,-0.08 v 0 A 6.93,6.93 0 0 0 2.19,7.1 Z"
               fill="#f9ab00"
               id="path638"
               style="stroke-width:0.0711064" /><path
               d="m 11.34,17.46 v 0 L 9.62,14.54 a 3.59,3.59 0 0 1 -5.08,0 L 2.19,16.9 a 6.93,6.93 0 0 0 9,0.65 l 0.11,-0.09"
               fill="#f9ab00"
               id="path640"
               style="stroke-width:0.0711064" /><path
               d="m 12,7.1 a 6.93,6.93 0 0 0 0,9.79 l 2.36,-2.36 A 3.5921024,3.5921024 0 1 1 19.44,9.45 L 21.81,7.1 A 6.93,6.93 0 0 0 12,7.1 Z"
               fill="#f9ab00"
               id="path642"
               style="stroke-width:0.0711064" /><path
               d="m 21.81,7.1 -2.35,2.36 a 3.5921024,3.5921024 0 0 1 -5.08,5.08 L 12,16.9 a 6.9331829,6.9331829 0 0 0 9.81,-9.8 z"
               fill="#e8710a"
               id="path644"
               style="stroke-width:0.0711064" /></g></g><text
           xml:space="preserve"
           style="font-size:1.76389px;font-family:'DejaVu Sans';-inkscape-font-specification:'DejaVu Sans';fill:#ffffff;stroke-width:0.28514;stroke-dasharray:none"
           x="10.062241"
           y="3.1325972"
           id="text427"><tspan
             sodipodi:role="line"
             id="tspan425"
             style="fill:#333333;stroke-width:0.28514"
             x="10.062241"
             y="3.1325972">Run in Google Colab</tspan></text></g></g></g></svg>
