<?xml version="1.0" encoding="UTF-8" standalone="no"?>
<!-- Created with Inkscape (http://www.inkscape.org/) -->

<svg
   width="117"
   height="20"
   viewBox="0 0 30.956248 5.2916665"
   version="1.1"
   id="svg5"
   xml:space="preserve"
   inkscape:version="1.2.1 (1:1.2.1+202210291244+9c6d41e410)"
   sodipodi:docname="drawing.svg"
   xmlns:inkscape="http://www.inkscape.org/namespaces/inkscape"
   xmlns:sodipodi="http://sodipodi.sourceforge.net/DTD/sodipodi-0.dtd"
   xmlns="http://www.w3.org/2000/svg"
   xmlns:svg="http://www.w3.org/2000/svg"><sodipodi:namedview
     id="namedview7"
     pagecolor="#efefef"
     bordercolor="#000000"
     borderopacity="0.24705882"
     inkscape:showpageshadow="true"
     inkscape:pageopacity="0"
     inkscape:pagecheckerboard="0"
     inkscape:deskcolor="#d1d1d1"
     inkscape:document-units="mm"
     showgrid="true"
     borderlayer="true"
     showguides="true"
     inkscape:zoom="11.329025"
     inkscape:cx="57.904364"
     inkscape:cy="11.519085"
     inkscape:window-width="1848"
     inkscape:window-height="1016"
     inkscape:window-x="72"
     inkscape:window-y="27"
     inkscape:window-maximized="1"
     inkscape:current-layer="layer1-7"><sodipodi:guide
       position="8.1512463,2.6085478"
       orientation="0,-1"
       id="guide10668"
       inkscape:locked="false" /></sodipodi:namedview><defs
     id="defs2"><inkscape:path-effect
       effect="fillet_chamfer"
       id="path-effect1707"
       is_visible="true"
       lpeversion="1"
       nodesatellites_param="F,0,0,1,0,0.10425462,0,1 @ F,0,0,1,0,0,0,1 @ F,0,0,1,0,0,0,1 @ F,0,0,1,0,0,0,1"
       unit="px"
       method="auto"
       mode="F"
       radius="0"
       chamfer_steps="1"
       flexible="false"
       use_knot_distance="true"
       apply_no_radius="true"
       apply_with_radius="true"
       only_selected="false"
       hide_knots="false" /><filter
       inkscape:label="Pixellize"
       inkscape:menu="Pixel Tools"
       inkscape:menu-tooltip="Reduce or remove antialiasing around shapes"
       style="color-interpolation-filters:sRGB"
       id="filter1310"
       x="0"
       y="0"
       width="1"
       height="1"><feColorMatrix
         values="1 0 0 0 0 0 1 0 0 0 0 0 1 0 0 0 0 0 1000 -500 "
         id="feColorMatrix1308" /></filter><filter
       inkscape:label="Pixellize"
       inkscape:menu="Pixel Tools"
       inkscape:menu-tooltip="Reduce or remove antialiasing around shapes"
       style="color-interpolation-filters:sRGB"
       id="filter1314"
       x="0"
       y="0"
       width="1"
       height="1"><feColorMatrix
         values="1 0 0 0 0 0 1 0 0 0 0 0 1 0 0 0 0 0 1000 -500 "
         id="feColorMatrix1312" /></filter><style
       id="style127">
      .cls-1{fill:#20beff}
    </style><style
       id="style127-6">
      .cls-1{fill:#20beff}
    </style><style
       id="style127-5">
      .cls-1{fill:#20beff}
    </style><style
       id="style127-62">
      .cls-1{fill:#20beff}
    </style></defs><g
     inkscape:label="Layer 1"
     inkscape:groupmode="layer"
     id="layer1"><g
       inkscape:label="Layer 1"
       id="layer1-3"
       transform="matrix(0.92975517,0,0,0.62137186,0.70823123,0.62166889)"
       style="stroke-width:0.06578243;stroke-dasharray:none"><rect
         style="fill:#fffcfb;fill-opacity:1;stroke:#f3040d;stroke-width:0.06578243;stroke-dasharray:none;stroke-opacity:0.64929032"
         id="rect8268"
         width="33.115444"
         height="8.2799978"
         x="-0.67193359"
         y="-0.88242573"
         ry="0.58331341"
         rx="0.38983864" /><g
         inkscape:label="Layer 1"
         id="layer1-7"
         transform="matrix(0.9980214,0,0,1.4933339,1.3479375,-0.46956816)"
         style="stroke-width:0.0708929"><g
           inkscape:label="Layer 1"
           id="layer1-9"
           transform="matrix(1.0776843,0,0,1.0776841,-0.17129099,-0.31562319)"><text
             xml:space="preserve"
             style="font-size:1.76389px;font-family:'DejaVu Sans';-inkscape-font-specification:'DejaVu Sans';fill:#ffffff;stroke-width:0.264583"
             x="6.7573504"
             y="3.1748757"
             id="text427"><tspan
               sodipodi:role="line"
               id="tspan425"
               style="fill:#333333;stroke-width:0.264583"
               x="6.7573504"
               y="3.1748757">View source on GitHub</tspan></text><path
             fill-rule="evenodd"
             clip-rule="evenodd"
             fill="#191717"
             d="m 3.1235573,0.41662891 c -1.2342792,0 -2.23541659,1.00113749 -2.23541659,2.23541669 0,0.9874232 0.64456779,1.8239901 1.52227769,2.1257029 0.1097134,0.013714 0.1508559,-0.054857 0.1508559,-0.1097137 0,-0.054857 0,-0.1919991 0,-0.383998 C 1.9441347,4.4211789 1.8069929,3.9823241 1.8069929,3.9823241 1.7109935,3.7217541 1.560137,3.6531831 1.560137,3.6531831 1.3544239,3.5160409 1.5738522,3.5160409 1.5738522,3.5160409 1.7932799,3.5297549 1.9167077,3.7491825 1.9167077,3.7491825 2.122421,4.0920379 2.4378475,3.9960385 2.5612754,3.9411815 2.5749906,3.7903251 2.6435607,3.6943257 2.6984179,3.6394688 2.2047062,3.584612 1.683566,3.3926129 1.683566,2.5286177 c 0,-0.2468559 0.082285,-0.4388549 0.2331417,-0.6034255 -0.02743,-0.054857 -0.096,-0.2879984 0.02743,-0.589711 0,0 0.191999,-0.054857 0.6171395,0.2331417 0.178285,-0.054857 0.3702837,-0.068571 0.5622829,-0.068571 0.191999,0 0.3839976,0.027429 0.5622828,0.068571 0.4251404,-0.2879985 0.6171396,-0.2331417 0.6171396,-0.2331417 0.1234278,0.3017126 0.041141,0.5348542 0.02743,0.589711 0.1371424,0.1508565 0.2331418,0.3565696 0.2331418,0.6034255 0,0.8639952 -0.5211403,1.04228 -1.0148519,1.097137 0.082285,0.068571 0.1508565,0.205713 0.1508565,0.4114264 0,0.3017125 0,0.5348542 0,0.6171395 0,0.054857 0.041141,0.1234279 0.1508564,0.1097136 C 4.7418342,4.4623216 5.3726882,3.6257547 5.3726882,2.6383314 5.3589737,1.4177664 4.3578364,0.41662891 3.1235573,0.41662891 Z"
             id="path746"
             style="stroke-width:0.137142" /></g></g></g></g></svg>
