<?xml version="1.0" encoding="UTF-8" standalone="no"?>
<!-- Created with Inkscape (http://www.inkscape.org/) -->

<svg
   width="117"
   height="20"
   viewBox="0 0 30.956248 5.2916665"
   version="1.1"
   id="svg5"
   xml:space="preserve"
   inkscape:version="1.2.1 (1:1.2.1+202210291244+9c6d41e410)"
   sodipodi:docname="drawing.svg"
   xmlns:inkscape="http://www.inkscape.org/namespaces/inkscape"
   xmlns:sodipodi="http://sodipodi.sourceforge.net/DTD/sodipodi-0.dtd"
   xmlns="http://www.w3.org/2000/svg"
   xmlns:svg="http://www.w3.org/2000/svg"><sodipodi:namedview
     id="namedview7"
     pagecolor="#efefef"
     bordercolor="#000000"
     borderopacity="0.24705882"
     inkscape:showpageshadow="true"
     inkscape:pageopacity="0"
     inkscape:pagecheckerboard="0"
     inkscape:deskcolor="#d1d1d1"
     inkscape:document-units="mm"
     showgrid="true"
     borderlayer="true"
     showguides="true"
     inkscape:zoom="11.329025"
     inkscape:cx="57.904364"
     inkscape:cy="11.519085"
     inkscape:window-width="1848"
     inkscape:window-height="1016"
     inkscape:window-x="72"
     inkscape:window-y="27"
     inkscape:window-maximized="1"
     inkscape:current-layer="layer1-7"><sodipodi:guide
       position="8.1512463,2.6085478"
       orientation="0,-1"
       id="guide10668"
       inkscape:locked="false" /></sodipodi:namedview><defs
     id="defs2"><inkscape:path-effect
       effect="fillet_chamfer"
       id="path-effect1707"
       is_visible="true"
       lpeversion="1"
       nodesatellites_param="F,0,0,1,0,0.10425462,0,1 @ F,0,0,1,0,0,0,1 @ F,0,0,1,0,0,0,1 @ F,0,0,1,0,0,0,1"
       unit="px"
       method="auto"
       mode="F"
       radius="0"
       chamfer_steps="1"
       flexible="false"
       use_knot_distance="true"
       apply_no_radius="true"
       apply_with_radius="true"
       only_selected="false"
       hide_knots="false" /><filter
       inkscape:label="Pixellize"
       inkscape:menu="Pixel Tools"
       inkscape:menu-tooltip="Reduce or remove antialiasing around shapes"
       style="color-interpolation-filters:sRGB"
       id="filter1310"
       x="0"
       y="0"
       width="1"
       height="1"><feColorMatrix
         values="1 0 0 0 0 0 1 0 0 0 0 0 1 0 0 0 0 0 1000 -500 "
         id="feColorMatrix1308" /></filter><filter
       inkscape:label="Pixellize"
       inkscape:menu="Pixel Tools"
       inkscape:menu-tooltip="Reduce or remove antialiasing around shapes"
       style="color-interpolation-filters:sRGB"
       id="filter1314"
       x="0"
       y="0"
       width="1"
       height="1"><feColorMatrix
         values="1 0 0 0 0 0 1 0 0 0 0 0 1 0 0 0 0 0 1000 -500 "
         id="feColorMatrix1312" /></filter><style
       id="style127">
      .cls-1{fill:#20beff}
    </style><style
       id="style127-6">
      .cls-1{fill:#20beff}
    </style><style
       id="style127-5">
      .cls-1{fill:#20beff}
    </style><style
       id="style127-62">
      .cls-1{fill:#20beff}
    </style><style
       id="style127-1">
      .cls-1{fill:#20beff}
    </style></defs><g
     inkscape:label="Layer 1"
     inkscape:groupmode="layer"
     id="layer1"><g
       inkscape:label="Layer 1"
       id="layer1-3"
       transform="matrix(0.92975517,0,0,0.62137186,0.70823123,0.62166889)"
       style="stroke-width:0.06578243;stroke-dasharray:none"><rect
         style="fill:#fffcfb;fill-opacity:1;stroke:#f3040d;stroke-width:0.06578243;stroke-dasharray:none;stroke-opacity:0.64929032"
         id="rect8268"
         width="33.115444"
         height="8.2799978"
         x="-0.67193359"
         y="-0.88242573"
         ry="0.58331341"
         rx="0.38983864" /><g
         inkscape:label="Layer 1"
         id="layer1-7"
         transform="matrix(0.9980214,0,0,1.4933339,1.3479375,-0.46956816)"
         style="stroke-width:0.0708929"><g
           inkscape:label="Layer 1"
           id="layer1-2"
           transform="matrix(1.0776843,0,0,1.0776841,0.55916439,-0.22426049)"><path
             class="cls-1"
             d="m 2.9851555,3.4315831 c -0.00285,0.010256 -0.013673,0.015384 -0.031905,0.015384 H 2.6017263 A 0.07064668,0.07064668 0 0 1 2.5447532,3.4196194 L 1.9641969,2.6783983 1.802963,2.8327954 V 3.4059451 A 0.03475361,0.03475361 0 0 1 1.763652,3.4452571 H 1.4907501 A 0.03475361,0.03475361 0 0 1 1.4514387,3.4059451 V 0.79315726 a 0.03475361,0.03475361 0 0 1 0.039311,-0.039311 h 0.2729014 a 0.03475361,0.03475361 0 0 1 0.039311,0.039311 V 2.4020785 L 2.4986047,1.6984604 a 0.08204131,0.08204131 0 0 1 0.056973,-0.027918 h 0.3640586 a 0.0307655,0.0307655 0 0 1 0.031336,0.01994 0.03361415,0.03361415 0 0 1 -0.00398,0.035893 l -0.7366674,0.711026 0.7668583,0.9525909 a 0.03703253,0.03703253 0 0 1 0.00798,0.041591 z m 1.424898,0.013673 H 4.1371521 c -0.029056,0 -0.0433,-0.013105 -0.0433,-0.039312 V 3.3489712 A 0.72754692,0.72754692 0 0 1 3.6471833,3.4794406 0.64265695,0.64265695 0 0 1 3.2176058,3.3267524 0.51275821,0.51275821 0 0 1 3.0398497,2.9239524 q 0,-0.387987 0.4819927,-0.525862 A 3.5066964,3.5066964 0 0 1 4.0949922,2.3029454 0.31164303,0.31164303 0 0 0 3.7577111,1.9502815 0.79762389,0.79762389 0 0 0 3.3070537,2.1080972 c -0.023359,0.013673 -0.040451,0.010825 -0.051276,-0.00741 L 3.113345,1.8990058 C 3.100241,1.8830528 3.104235,1.8648218 3.12531,1.8420328 A 1.100721,1.100721 0 0 1 3.7577114,1.6323715 0.75717295,0.75717295 0 0 1 4.1861496,1.7537243 Q 4.4476561,1.928062 4.4470865,2.3109214 v 1.0950237 a 0.03475361,0.03475361 0 0 1 -0.037033,0.039311 z M 4.0938526,2.6191461 Q 3.7064353,2.6590274 3.5640025,2.7222676 3.3708636,2.8048786 3.3885253,2.9592759 A 0.19883624,0.19883624 0 0 0 3.4756943,3.0994298 0.3344323,0.3344323 0 0 0 3.6466138,3.1609609 0.54067503,0.54067503 0 0 0 4.0892949,3.01454 Z m 1.9724099,1.512067 Q 5.8491948,4.3545478 5.4543711,4.3545478 A 0.877956,0.877956 0 0 1 5.0196661,4.2406016 c -0.029057,-0.0188 -0.063241,-0.0433 -0.1031215,-0.073496 C 4.8766635,4.1369098 4.831085,4.0993081 4.7781,4.0531596 A 0.04102066,0.04102066 0 0 1 4.77412,3.9961866 l 0.1857256,-0.185732 a 0.04329958,0.04329958 0 0 1 0.031904,-0.011964 0.03874173,0.03874173 0 0 1 0.027917,0.011964 c 0.1469906,0.1469906 0.2911327,0.2210556 0.4307169,0.2210556 q 0.4780045,0 0.4780045,-0.4979451 V 3.3267524 A 0.74634806,0.74634806 0 0 1 5.4344308,3.4811496 0.71102471,0.71102471 0 0 1 4.8333643,3.1922959 1.0346321,1.0346321 0 0 1 4.6419344,2.555906 1.0255164,1.0255164 0 0 1 4.8242483,1.9394566 0.6945025,0.6945025 0 0 1 5.4287333,1.6352201 0.79363575,0.79363575 0 0 1 5.9266787,1.7896173 v -0.079192 a 0.03532334,0.03532334 0 0 1 0.039311,-0.039881 H 6.238891 a 0.03532334,0.03532334 0 0 1 0.039881,0.039881 V 3.476592 q 0.0017,0.4312867 -0.2125095,0.6546211 z M 5.9283874,2.2351473 Q 5.8292542,1.9821865 5.4726026,1.9821865 q -0.4620522,0 -0.4620522,0.5765681 0,0.3207588 0.1538275,0.4666099 a 0.4016606,0.4016606 0 0 0 0.29683,0.1139463 q 0.370895,0 0.4700282,-0.2529607 z M 7.9230171,4.1312131 Q 7.7076585,4.3539781 7.3122649,4.3545478 A 0.87966521,0.87966521 0 0 1 6.8775601,4.2406016 q -0.0433,-0.027916 -0.1025517,-0.073496 c -0.039881,-0.030196 -0.08603,-0.067798 -0.1384448,-0.113946 a 0.03988119,0.03988119 0 0 1 -0.00398,-0.056973 l 0.1857255,-0.185732 a 0.04216012,0.04216012 0 0 1 0.031336,-0.011964 0.038172,0.038172 0 0 1 0.027917,0.011964 c 0.1475602,0.1469906 0.2911325,0.2210556 0.430717,0.2210556 q 0.4785743,0 0.4785743,-0.4979451 V 3.3267524 A 0.74862699,0.74862699 0 0 1 7.292325,3.4811496 0.70988524,0.70988524 0 0 1 6.6929678,3.1922959 1.0306439,1.0306439 0 0 1 6.5032472,2.555906 1.0255164,1.0255164 0 0 1 6.6849915,1.9394566 0.69564198,0.69564198 0 0 1 7.2894763,1.6352201 0.79762389,0.79762389 0 0 1 7.7879913,1.7896173 v -0.079192 a 0.03532334,0.03532334 0 0 1 0.039311,-0.039881 h 0.2729013 a 0.03532334,0.03532334 0 0 1 0.039311,0.039881 V 3.476592 Q 8.1383764,3.9078787 7.9230171,4.1312131 Z M 7.7868513,2.2351473 Q 7.6877181,1.9821865 7.3310662,1.9821865 6.8638865,1.9793406 6.8638865,2.555906 q 0,0.3207588 0.154397,0.4666099 A 0.39881194,0.39881194 0 0 0 7.314544,3.1364622 q 0.3720345,0 0.470598,-0.2529607 z M 8.744,3.4452567 H 8.4716682 A 0.03532334,0.03532334 0 0 1 8.431787,3.4059447 V 0.79315681 a 0.03532334,0.03532334 0 0 1 0.039881,-0.0393111 h 0.2723317 a 0.03475361,0.03475361 0 0 1 0.039881,0.0393111 V 3.4059447 A 0.03475361,0.03475361 0 0 1 8.744,3.4452567 Z m 1.988932,-0.8021819 a 0.03532334,0.03532334 0 0 1 -0.03988,0.039311 H 9.4088785 A 0.50535171,0.50535171 0 0 0 9.5746695,3.006563 0.60562441,0.60562441 0 0 0 9.9820277,3.1467169 0.66316729,0.66316729 0 0 0 10.372863,3.0242248 c 0.02392,-0.015952 0.04388,-0.015952 0.05697,0 l 0.185733,0.1897203 c 0.02108,0.02108 0.02108,0.039312 0,0.056973 A 1.0688159,1.0688159 0 0 1 9.9558179,3.4845675 0.91157014,0.91157014 0 0 1 9.2835355,3.2156543 0.92296481,0.92296481 0 0 1 9.0231683,2.539953 0.91157014,0.91157014 0 0 1 9.2801172,1.8836224 0.81813421,0.81813421 0 0 1 9.8965667,1.638638 0.80161199,0.80161199 0 0 1 10.50333,1.8933079 0.85459701,0.85459701 0 0 1 10.738059,2.5559055 Z M 10.215046,2.0642279 A 0.46604024,0.46604024 0 0 0 9.8908695,1.9417356 0.45920347,0.45920347 0 0 0 9.5786556,2.0602397 0.52643176,0.52643176 0 0 0 9.4077365,2.3684644 H 10.359758 A 0.39881194,0.39881194 0 0 0 10.215046,2.0642279 Z"
             id="path131"
             style="display:inline;stroke-width:0.0569731" /><path
             id="text348"
             style="font-size:1.76389px;font-family:'DejaVu Sans';-inkscape-font-specification:'DejaVu Sans';fill:#333333;stroke-width:0.264583"
             d="m 13.321124,1.7980087 v 0.2005046 h 0.15813 V 1.7980087 Z m 3.578593,0 v 0.2005046 h 0.15813 V 1.7980087 Z m 6.614583,0 v 1.3399699 h 0.15813 V 1.7980087 Z m -11.513509,0.05426 0.490926,1.2857096 h 0.196887 L 13.179014,1.852269 H 12.998146 L 12.589902,2.9348902 12.182175,1.852269 Z m 7.074504,0 v 1.2857096 h 0.173633 V 2.518895 l 0.617533,0.6190836 h 0.229443 L 19.411708,2.4517156 20.049912,1.852269 H 19.826153 L 19.248928,2.3953883 V 1.852269 Z m -4.860169,0.2976562 c -0.144694,0 -0.260162,0.046509 -0.345715,0.1395264 -0.08498,0.092443 -0.127124,0.2177876 -0.127124,0.3756877 0,0.1527323 0.04479,0.2737129 0.134359,0.3632853 0.09015,0.089572 0.211988,0.1343587 0.365869,0.1343587 0.06144,0 0.122186,-0.00597 0.181901,-0.018603 0.05971,-0.012632 0.117822,-0.031178 0.174666,-0.055294 V 2.9390243 c -0.05627,0.029857 -0.113114,0.052251 -0.170532,0.067179 -0.05684,0.014929 -0.115871,0.022221 -0.176733,0.022221 -0.105076,0 -0.186839,-0.028422 -0.24598,-0.085266 -0.05857,-0.057418 -0.09129,-0.1405027 -0.09819,-0.2495972 h 0.728638 v -0.077515 c 0,-0.1435453 -0.0379,-0.2567745 -0.113688,-0.3400309 -0.07522,-0.08383 -0.17771,-0.1260905 -0.307475,-0.1260905 z m 3.639571,0 c -0.06718,0 -0.126607,0.014699 -0.178283,0.043408 -0.0511,0.028709 -0.09543,0.071715 -0.133325,0.1297079 V 2.1731796 h -0.159681 v 0.964799 h 0.159681 V 2.5927923 c 0,-0.094166 0.02452,-0.168695 0.0739,-0.2232422 0.04938,-0.054547 0.117019,-0.081649 0.202571,-0.081649 0.0712,0 0.124598,0.022852 0.160197,0.068213 0.0356,0.04536 0.05323,0.1133438 0.05323,0.2046387 v 0.5772257 h 0.158647 V 2.5555852 c 0,-0.1332101 -0.02842,-0.2339795 -0.08527,-0.3023071 -0.05684,-0.068902 -0.140847,-0.1033529 -0.251665,-0.1033529 z m 2.677873,0 c -0.05168,0 -0.105133,0.00609 -0.15968,0.01757 -0.05455,0.010909 -0.110473,0.027216 -0.168465,0.049609 V 2.363865 c 0.04823,-0.026412 0.09813,-0.046222 0.150378,-0.059428 0.05225,-0.013206 0.106109,-0.020154 0.161231,-0.020154 0.0867,0 0.153881,0.020269 0.201538,0.060461 0.04823,0.039619 0.07235,0.096061 0.07235,0.1689819 v 0.015503 h -0.222209 c -0.14412,0 -0.252641,0.027561 -0.325561,0.082682 -0.07235,0.055121 -0.108521,0.1369427 -0.108521,0.2454631 0,0.093017 0.02882,0.1670298 0.08682,0.2227254 0.05857,0.055121 0.137402,0.082682 0.236162,0.082682 0.07809,0 0.143948,-0.01378 0.19792,-0.041341 0.05397,-0.028135 0.09922,-0.071141 0.135393,-0.1297079 v 0.1462443 h 0.158646 v -0.550354 c 0,-0.1469905 -0.03445,-0.2568319 -0.103352,-0.3291789 -0.0689,-0.072347 -0.173117,-0.1085205 -0.312643,-0.1085205 z m 1.067635,0 c -0.118281,0 -0.213424,0.045246 -0.28577,0.1353923 -0.07235,0.090146 -0.108521,0.2098639 -0.108521,0.3591512 0,0.148713 0.03617,0.2679711 0.108521,0.3581177 0.07235,0.090146 0.167489,0.1353922 0.28577,0.1353922 0.0712,0 0.132349,-0.01424 0.183452,-0.042375 0.0511,-0.028135 0.09336,-0.07028 0.12609,-0.127124 v 0.078031 c 0,0.1096688 -0.02584,0.1914899 -0.07751,0.2454631 -0.05168,0.054547 -0.12965,0.082165 -0.233577,0.082165 -0.04708,0 -0.09313,-0.00603 -0.138493,-0.018087 -0.04536,-0.012058 -0.09147,-0.031063 -0.137976,-0.056327 V 3.454237 c 0.04651,0.017225 0.09428,0.029685 0.14366,0.037724 0.04938,0.00861 0.101918,0.012919 0.157614,0.012919 0.150434,0 0.262458,-0.040021 0.33538,-0.1204061 0.07292,-0.079811 0.109037,-0.2021699 0.109037,-0.3663859 V 2.1731796 h -0.15813 v 0.1467611 c -0.03273,-0.056844 -0.07499,-0.099506 -0.12609,-0.1276408 -0.0511,-0.028135 -0.112253,-0.042375 -0.183452,-0.042375 z m 1.119828,0 c -0.11828,0 -0.213423,0.045246 -0.28577,0.1353923 -0.07235,0.090146 -0.108521,0.2098639 -0.108521,0.3591512 0,0.148713 0.03617,0.2679711 0.108521,0.3581177 0.07235,0.090146 0.16749,0.1353922 0.28577,0.1353922 0.0712,0 0.13235,-0.01424 0.183452,-0.042375 0.0511,-0.028135 0.09285,-0.07028 0.125574,-0.127124 v 0.078031 c 0,0.1096688 -0.02584,0.1914899 -0.07751,0.2454631 -0.05168,0.054547 -0.129134,0.082165 -0.233061,0.082165 -0.04708,0 -0.09365,-0.00603 -0.139009,-0.018087 -0.04536,-0.012058 -0.09095,-0.031063 -0.13746,-0.056327 V 3.454237 c 0.04651,0.017225 0.09428,0.029685 0.143661,0.037724 0.04938,0.00861 0.101917,0.012919 0.157613,0.012919 0.150436,0 0.261942,-0.040021 0.334863,-0.1204061 C 23.151076,3.3046629 23.18771,3.182304 23.18771,3.018088 V 2.1731796 h -0.158646 v 0.1467611 c -0.03273,-0.056844 -0.07447,-0.099506 -0.125574,-0.1276408 -0.0511,-0.028135 -0.112253,-0.042375 -0.183452,-0.042375 z m 1.68827,0 c -0.144694,0 -0.260163,0.046509 -0.345716,0.1395264 -0.08498,0.092443 -0.127124,0.2177876 -0.127124,0.3756877 0,0.1527323 0.04479,0.2737129 0.134359,0.3632853 0.09015,0.089572 0.211988,0.1343587 0.365869,0.1343587 0.06144,0 0.122186,-0.00597 0.181901,-0.018603 0.05971,-0.012632 0.117822,-0.031178 0.174666,-0.055294 V 2.9390243 c -0.05627,0.029857 -0.113114,0.052251 -0.170532,0.067179 -0.05684,0.014929 -0.11587,0.022221 -0.176733,0.022221 -0.105076,0 -0.186839,-0.028422 -0.24598,-0.085266 -0.05857,-0.057418 -0.09129,-0.1405027 -0.09819,-0.2495972 h 0.728637 v -0.077515 c 0,-0.1435453 -0.0379,-0.2567745 -0.113688,-0.3400309 -0.07522,-0.08383 -0.17771,-0.1260905 -0.307474,-0.1260905 z m -11.087179,0.023255 v 0.964799 h 0.15813 v -0.964799 z m 1.483114,0 0.252181,0.964799 h 0.187068 l 0.208256,-0.7906494 0.20774,0.7906494 h 0.186551 l 0.252698,-0.964799 H 15.940086 L 15.742682,2.9261052 15.544761,2.1731796 H 15.357692 L 15.160805,2.9261052 14.962367,2.1731796 Z m 2.095479,0 v 0.964799 h 0.15813 v -0.964799 z m 4.739246,0.1095541 c 0.08555,0 0.151871,0.031408 0.198954,0.094568 0.04766,0.06316 0.07183,0.1523308 0.07183,0.2671672 0,0.1142622 -0.02417,0.2029736 -0.07183,0.2661336 -0.04708,0.06316 -0.113402,0.094568 -0.198954,0.094568 -0.08498,0 -0.151298,-0.031408 -0.198955,-0.094568 -0.04708,-0.06316 -0.07028,-0.1518714 -0.07028,-0.2661336 0,-0.1148364 0.0232,-0.2040071 0.07028,-0.2671672 0.04766,-0.06316 0.113976,-0.094568 0.198955,-0.094568 z m 1.119828,0 c 0.08555,0 0.151871,0.031408 0.198954,0.094568 0.04766,0.06316 0.07131,0.1523308 0.07131,0.2671672 0,0.1142622 -0.02366,0.2029736 -0.07131,0.2661336 -0.04708,0.06316 -0.113401,0.094568 -0.198954,0.094568 -0.08498,0 -0.151297,-0.031408 -0.198954,-0.094568 -0.04708,-0.06316 -0.0708,-0.1518714 -0.0708,-0.2661336 0,-0.1148364 0.02371,-0.2040071 0.0708,-0.2671672 0.04766,-0.06316 0.113975,-0.094568 0.198954,-0.094568 z m -8.542114,0.00155 c 0.07809,0 0.140502,0.025838 0.187585,0.077515 0.04766,0.051676 0.07223,0.1210377 0.07338,0.2077393 l -0.564824,0.00103 c 0.008,-0.090721 0.03813,-0.1614029 0.09095,-0.2113566 0.0534,-0.049954 0.124482,-0.074931 0.212907,-0.074931 z m 10.193176,0 c 0.07809,0 0.140502,0.025838 0.187585,0.077515 0.04766,0.051676 0.07223,0.1210377 0.07338,0.2077393 l -0.564824,0.00103 c 0.008,-0.090721 0.03813,-0.1614029 0.09095,-0.2113566 0.0534,-0.049954 0.124483,-0.074931 0.212907,-0.074931 z m -3.777547,0.3689697 h 0.157613 v 0.03514 c 0,0.1033526 -0.0267,0.1864945 -0.0801,0.2490804 -0.05282,0.062012 -0.12299,0.093018 -0.21084,0.093018 -0.06373,0 -0.114606,-0.016364 -0.151928,-0.049093 -0.03675,-0.033303 -0.05478,-0.078089 -0.05478,-0.1343587 0,-0.070624 0.02452,-0.1205784 0.0739,-0.1498617 0.04938,-0.029283 0.138091,-0.043925 0.266134,-0.043925 z" /></g></g></g></g></svg>
