<?xml version="1.0" encoding="UTF-8" standalone="no"?>
<!-- Created with Inkscape (http://www.inkscape.org/) -->

<svg
   width="117"
   height="20"
   viewBox="0 0 30.956248 5.2916665"
   version="1.1"
   id="svg5"
   xml:space="preserve"
   inkscape:version="1.2.1 (1:1.2.1+202210291244+9c6d41e410)"
   sodipodi:docname="drawing.svg"
   xmlns:inkscape="http://www.inkscape.org/namespaces/inkscape"
   xmlns:sodipodi="http://sodipodi.sourceforge.net/DTD/sodipodi-0.dtd"
   xmlns="http://www.w3.org/2000/svg"
   xmlns:svg="http://www.w3.org/2000/svg"><sodipodi:namedview
     id="namedview7"
     pagecolor="#efefef"
     bordercolor="#000000"
     borderopacity="0.24705882"
     inkscape:showpageshadow="true"
     inkscape:pageopacity="0"
     inkscape:pagecheckerboard="0"
     inkscape:deskcolor="#d1d1d1"
     inkscape:document-units="mm"
     showgrid="true"
     borderlayer="true"
     showguides="true"
     inkscape:zoom="11.329025"
     inkscape:cx="57.904364"
     inkscape:cy="11.519085"
     inkscape:window-width="1848"
     inkscape:window-height="1016"
     inkscape:window-x="72"
     inkscape:window-y="27"
     inkscape:window-maximized="1"
     inkscape:current-layer="layer1-3"><sodipodi:guide
       position="8.1512463,2.6085478"
       orientation="0,-1"
       id="guide10668"
       inkscape:locked="false" /></sodipodi:namedview><defs
     id="defs2"><inkscape:path-effect
       effect="fillet_chamfer"
       id="path-effect1707"
       is_visible="true"
       lpeversion="1"
       nodesatellites_param="F,0,0,1,0,0.10425462,0,1 @ F,0,0,1,0,0,0,1 @ F,0,0,1,0,0,0,1 @ F,0,0,1,0,0,0,1"
       unit="px"
       method="auto"
       mode="F"
       radius="0"
       chamfer_steps="1"
       flexible="false"
       use_knot_distance="true"
       apply_no_radius="true"
       apply_with_radius="true"
       only_selected="false"
       hide_knots="false" /><filter
       inkscape:label="Pixellize"
       inkscape:menu="Pixel Tools"
       inkscape:menu-tooltip="Reduce or remove antialiasing around shapes"
       style="color-interpolation-filters:sRGB"
       id="filter1310"
       x="0"
       y="0"
       width="1"
       height="1"><feColorMatrix
         values="1 0 0 0 0 0 1 0 0 0 0 0 1 0 0 0 0 0 1000 -500 "
         id="feColorMatrix1308" /></filter><filter
       inkscape:label="Pixellize"
       inkscape:menu="Pixel Tools"
       inkscape:menu-tooltip="Reduce or remove antialiasing around shapes"
       style="color-interpolation-filters:sRGB"
       id="filter1314"
       x="0"
       y="0"
       width="1"
       height="1"><feColorMatrix
         values="1 0 0 0 0 0 1 0 0 0 0 0 1 0 0 0 0 0 1000 -500 "
         id="feColorMatrix1312" /></filter><style
       id="style127">
      .cls-1{fill:#20beff}
    </style><style
       id="style127-6">
      .cls-1{fill:#20beff}
    </style><style
       id="style127-5">
      .cls-1{fill:#20beff}
    </style><style
       id="style127-62">
      .cls-1{fill:#20beff}
    </style><style
       id="style127-1">
      .cls-1{fill:#20beff}
    </style><style
       id="style127-7">
      .cls-1{fill:#20beff}
    </style></defs><g
     inkscape:label="Layer 1"
     inkscape:groupmode="layer"
     id="layer1"><g
       inkscape:label="Layer 1"
       id="layer1-3"
       transform="matrix(0.92975517,0,0,0.62137186,0.70823123,0.62166889)"
       style="stroke-width:0.06578243;stroke-dasharray:none"><rect
         style="fill:#fffcfb;fill-opacity:1;stroke:#f3040d;stroke-width:0.06578243;stroke-dasharray:none;stroke-opacity:0.64929032"
         id="rect8268"
         width="33.115444"
         height="8.2799978"
         x="-0.67193359"
         y="-0.88242573"
         ry="0.58331341"
         rx="0.38983864" /><g
         inkscape:label="Layer 1"
         id="layer1-7"
         transform="matrix(1.0134757,0,0,1.516458,-8.5188846,5.6408961)"
         style="stroke-width:0.0698119"><g
           inkscape:label="Layer 1"
           id="layer1-0"
           transform="matrix(1.0776843,0,0,1.0776841,9.2069528,-4.4702046)"
           style="stroke-width:0.0698119"><g
             fill="none"
             fill-rule="evenodd"
             id="g410"
             transform="matrix(0.01610268,0,0,0.01610268,0.83448696,0.80344494)"
             style="stroke-width:0.0687473"><path
               d="m 95.56,32.732 c 0.17,4.014 -2.912,7.406 -6.885,7.578 -3.97,0.172 -7.328,-2.942 -7.498,-6.955 -0.17,-4.014 2.91,-7.407 6.882,-7.58 3.97,-0.17 7.33,2.944 7.5,6.957"
               fill="#636462"
               id="path398"
               style="stroke-width:0.067699" /><path
               d="m 51.482,130.1 c -22.015,0 -41.187,-7.997 -51.168,-19.81 7.553,21.178 27.61,36.32 51.168,36.32 23.56,0 43.616,-15.142 51.17,-36.32 -9.982,11.813 -29.154,19.81 -51.17,19.81 m 0,-76.888 c 22.016,0 41.188,7.995 51.17,19.81 C 95.097,51.84 75.04,36.7 51.48,36.7 27.924,36.7 7.867,51.84 0.314,73.02 10.294,61.205 29.467,53.21 51.482,53.21"
               fill="#e46e2e"
               id="path400"
               style="stroke-width:0.067699" /><path
               d="m 23.337,152.82 c 0.204,4.83 -3.505,8.914 -8.285,9.122 -4.78,0.207 -8.82,-3.542 -9.024,-8.372 -0.206,-4.83 3.503,-8.915 8.283,-9.122 4.78,-0.206 8.823,3.542 9.028,8.373"
               fill="#8a8b8a"
               id="path402"
               style="stroke-width:0.067699" /><path
               d="m 11.405,42.78 c 0.126,2.943 -2.135,5.432 -5.047,5.557 -2.912,0.126 -5.374,-2.157 -5.5,-5.1 -0.125,-2.944 2.135,-5.433 5.048,-5.558 2.912,-0.128 5.374,2.155 5.5,5.1"
               fill="#4d4d4c"
               id="path404"
               style="stroke-width:0.067699" /><path
               d="m 162.945,98.957 c 0,21.092 -1.62,28.002 -5.937,33.093 -3.778,4.183 -10.075,6.182 -17.274,6.73 l 1.62,12.545 c 8.456,0 19.972,-2.91 26.99,-10 7.736,-8 10.436,-19.093 10.436,-36.186 V 25.31 H 162.945 V 98.957 M 281.16,89.32 c 0,9.09 0.18,17.092 0.72,24 h -14.035 l -0.9,-14.363 h -0.36 c -4.14,7.09 -13.314,16.364 -28.788,16.364 -13.675,0 -30.05,-7.635 -30.05,-38.546 V 25.31 h 15.835 v 48.734 c 0,16.73 5.038,28.004 19.433,28.004 10.615,0 17.992,-7.456 20.87,-14.55 0.9,-2.36 1.44,-5.27 1.44,-8.18 V 25.31 h 15.835 v 64.01 m 29.87,-35.278 c 0,-11.273 -0.36,-20.366 -0.72,-28.73 h 14.215 l 0.72,15.092 h 0.36 c 6.477,-10.728 16.734,-17.093 30.948,-17.093 21.052,0 36.885,18.004 36.885,44.735 0,31.64 -19.072,47.277 -39.584,47.277 -11.515,0 -21.59,-5.09 -26.81,-13.82 h -0.36 v 47.825 H 311.03 Z M 326.686,77.5 c 0,2.364 0.36,4.545 0.72,6.546 2.88,11.09 12.415,18.73 23.75,18.73 16.734,0 26.45,-13.82 26.45,-34.005 0,-17.636 -9.177,-32.73 -25.91,-32.73 -10.796,0 -20.872,7.82 -23.93,19.82 -0.54,2 -1.08,4.365 -1.08,6.547 z m 94.824,-52.19 19.072,52.007 c 1.98,5.82 4.138,12.73 5.58,18.003 h 0.358 c 1.62,-5.274 3.42,-12.002 5.577,-18.367 L 469.37,25.31 h 16.734 l -23.75,62.736 c -11.336,30.184 -19.073,45.64 -29.868,55.097 -7.738,6.91 -15.475,9.638 -19.433,10.364 l -3.96,-13.455 c 3.96,-1.273 9.178,-3.82 13.856,-7.82 4.316,-3.455 9.715,-9.637 13.313,-17.82 0.72,-1.635 1.26,-2.91 1.26,-3.818 0,-0.91 -0.36,-2.182 -1.08,-4.182 l -32.207,-81.1 h 17.273 M 527.745,0.036 V 25.31 h 22.67 v 12.185 h -22.67 v 47.46 c 0,10.91 3.06,17.093 11.876,17.093 4.137,0 7.196,-0.547 9.175,-1.09 l 0.72,12 c -3.058,1.272 -7.917,2.18 -14.034,2.18 -7.378,0 -13.315,-2.36 -17.094,-6.726 -4.5,-4.728 -6.12,-12.548 -6.12,-22.913 V 37.493 H 498.774 V 25.31 h 13.495 V 4.22 l 15.478,-4.184 m 51.82,72.19 c 0.36,21.638 14.035,30.55 29.87,30.55 11.334,0 18.17,-2 24.11,-4.548 l 2.698,11.456 c -5.578,2.546 -15.113,5.455 -28.968,5.455 -26.81,0 -42.824,-17.82 -42.824,-44.37 0,-26.548 15.474,-47.46 40.844,-47.46 28.43,0 35.986,25.275 35.986,41.46 0,3.273 -0.36,5.82 -0.54,7.455 h -61.176 z m 46.42,-11.456 c 0.182,-10.184 -4.136,-26.004 -21.95,-26.004 -16.013,0 -23.03,14.91 -24.29,26.004 z m 38.51,-8 c 0,-10.365 -0.18,-19.276 -0.72,-27.46 h 13.854 l 0.54,17.277 h 0.72 c 3.958,-11.82 13.494,-19.276 24.11,-19.276 1.8,0 3.06,0.184 4.5,0.55 v 15.09 c -1.62,-0.363 -3.24,-0.545 -5.4,-0.545 -11.156,0 -19.07,8.546 -21.23,20.547 -0.36,2.183 -0.72,4.73 -0.72,7.456 v 46.915 H 664.496 V 52.77"
               fill="#343433"
               id="path406"
               style="stroke-width:0.067699" /><path
               d="m 144.677,221.71 h 7.128 v -23.572 c 0,-1.215 0.162,-2.43 0.486,-3.32 1.217,-3.97 4.86,-7.29 9.56,-7.29 6.723,0 9.07,5.264 9.07,11.582 v 22.6 h 7.13 V 198.3 c 0,-13.446 -8.424,-16.686 -13.85,-16.686 -6.48,0 -11.017,3.645 -12.96,7.37 h -0.163 l -0.405,-6.48 h -6.317 c 0.243,3.24 0.324,6.562 0.324,10.612 v 28.593 z m 50.787,0 0.324,-6.48 h 0.243 c 2.918,5.183 7.454,7.37 13.124,7.37 8.748,0 17.577,-6.966 17.577,-20.98 0.08,-11.906 -6.803,-20.006 -16.523,-20.006 -6.318,0 -10.854,2.835 -13.365,7.21 h -0.16 V 164.2 h -7.048 v 47.383 c 0,3.483 -0.162,7.452 -0.324,10.125 h 6.156 z m 1.215,-22.762 c 0,-1.134 0.24,-2.106 0.403,-2.916 1.458,-5.427 5.994,-8.748 10.854,-8.748 7.614,0 11.664,6.723 11.664,14.58 0,8.99 -4.454,15.066 -11.906,15.066 -5.184,0 -9.315,-3.402 -10.692,-8.343 -0.162,-0.81 -0.324,-1.7 -0.324,-2.592 v -7.047 z m 34.18,-16.443 14.904,39.204 h 6.804 l 15.39,-39.206 h -7.453 l -7.614,22.032 c -1.295,3.564 -2.43,6.804 -3.32,10.044 h -0.243 c -0.81,-3.24 -1.864,-6.48 -3.16,-10.043 l -7.695,-22.032 h -7.614 z m 50.95,39.204 v -39.206 h -7.13 v 39.204 h 7.13 z m -3.565,-54.677 c -2.592,0 -4.455,1.944 -4.455,4.455 0,2.43 1.783,4.373 4.294,4.373 2.835,0 4.617,-1.943 4.536,-4.373 0,-2.512 -1.7,-4.456 -4.374,-4.456 z m 46.9,36.37 c 0.08,-0.73 0.242,-1.864 0.242,-3.322 0,-7.21 -3.402,-18.467 -16.2,-18.467 -11.42,0 -18.387,9.315 -18.387,21.14 0,11.827 7.21,19.765 19.28,19.765 6.236,0 10.53,-1.297 13.04,-2.43 l -1.215,-5.104 c -2.673,1.134 -5.75,2.025 -10.854,2.025 -7.126,0 -13.282,-3.97 -13.444,-13.608 h 27.54 z m -27.46,-5.104 c 0.567,-4.94 3.726,-11.584 10.935,-11.584 8.02,0 9.964,7.047 9.883,11.583 h -20.817 z m 32.076,-15.796 11.827,39.204 h 6.48 l 6.318,-18.63 c 1.377,-4.213 2.592,-8.263 3.564,-12.96 h 0.16 c 0.973,4.616 2.107,8.504 3.484,12.878 l 5.994,18.71 h 6.48 l 12.635,-39.203 h -7.047 l -5.59,19.683 c -1.295,4.617 -2.348,8.748 -2.996,12.717 h -0.243 c -0.892,-3.97 -2.026,-8.1 -3.484,-12.798 l -6.075,-19.602 h -5.993 l -6.4,20.007 c -1.295,4.212 -2.59,8.424 -3.482,12.393 h -0.243 c -0.73,-4.05 -1.782,-8.1 -2.916,-12.474 l -5.184,-19.926 h -7.29 z m 95.58,20.898 c 0.08,-0.73 0.244,-1.863 0.244,-3.32 0,-7.21 -3.402,-18.47 -16.2,-18.47 -11.42,0 -18.387,9.316 -18.387,21.142 0,11.826 7.21,19.764 19.278,19.764 6.237,0 10.53,-1.297 13.04,-2.43 l -1.214,-5.104 c -2.672,1.134 -5.75,2.025 -10.853,2.025 -7.128,0 -13.284,-3.97 -13.446,-13.608 h 27.54 z m -27.46,-5.103 c 0.57,-4.94 3.728,-11.584 10.937,-11.584 8.02,0 9.963,7.047 9.882,11.583 H 397.88 Z m 36.533,23.41 h 7.047 v -20.9 c 0,-1.215 0.163,-2.35 0.325,-3.32 0.972,-5.347 4.536,-9.154 9.558,-9.154 0.972,0 1.7,0.08 2.43,0.243 v -6.724 c -0.648,-0.162 -1.215,-0.243 -2.025,-0.243 -4.78,0 -9.072,3.32 -10.854,8.586 h -0.324 l -0.243,-7.696 h -6.237 c 0.243,3.645 0.324,7.614 0.324,12.23 v 26.974 z"
               fill="#e46e2e"
               id="path408"
               style="stroke-width:0.067699" /></g></g></g><text
         xml:space="preserve"
         style="font-size:2.32066px;font-family:'DejaVu Sans';-inkscape-font-specification:'DejaVu Sans';fill:#ffffff;stroke-width:0.348098;stroke-dasharray:none"
         x="18.646709"
         y="3.2729449"
         id="text427"
         transform="scale(0.81750705,1.223231)"><tspan
           sodipodi:role="line"
           id="tspan425"
           style="fill:#333333;stroke-width:0.348098"
           x="18.646709"
           y="3.2729449">View in nbviwer</tspan></text></g></g></svg>
